<?xml version="1.0" encoding="utf-8"?>
<!-- Generator: Adobe Illustrator 21.1.0, SVG Export Plug-In . SVG Version: 6.00 Build 0)  -->
<svg version="1.1" id="Layer_1" xmlns="http://www.w3.org/2000/svg" xmlns:xlink="http://www.w3.org/1999/xlink" x="0px" y="0px"
	 viewBox="0 0 100 100" style="enable-background:new 0 0 100 100;" xml:space="preserve">
<style type="text/css">
	.st0{opacity:0.25;enable-background:new    ;}
</style>
<title>TNB-only-B-svg</title>
<path class="st0" d="M90.6,18.9c-0.3-0.5-0.7-0.9-1.2-1.2c-0.2-3.5-0.7-7-0.8-10.5V6.6c0-0.2,0-0.5,0-0.8c0-0.5-0.2-1.1-0.4-1.6
	c-0.4-1-1.2-1.9-2.2-2.5c-0.5-0.3-1-0.5-1.5-0.6C84.3,1,84,1,83.7,0.9c-0.3,0-0.5,0-0.8-0.1c-1-0.1-2-0.1-3-0.2
	c-2.6-0.1-4.9,1.5-5.7,3.9C74.1,4.8,74,5.1,74,5.4V6c0,0.2,0,0.3,0,0.4v1.5l-0.1,3c-0.1,1.8-0.1,3.6-0.2,5.5
	c-3.6-0.3-7.1-0.5-10.7-0.6s-7.4-0.2-11.1-0.2c-7.4-0.1-14.8,0.1-22.1,0.3c-2.6,0.1-5.1,0.1-7.7,0.2c0-2.9-0.2-5.8-0.3-8.6V6.6V6.2
	V5.7c-0.1-0.7-0.3-1.4-0.5-2.1c-0.6-1.3-1.6-2.4-2.8-3c-0.7-0.3-1.4-0.5-2.1-0.6c-0.3,0-0.7,0-1,0c-0.2,0-0.3,0-0.5,0h-0.4l-3,0.3
	C10.4,0.4,9.3,1,8.4,1.8c-1.1,1-1.8,2.3-1.9,3.8c0,0.3,0,0.6,0,0.8c0,0.5,0,1,0,1.5c0,1,0,2,0,3C6.4,13,6.2,15.1,6,17.2
	c-1.7,1-2.3,3.3-1.3,5c0,0,0,0.1,0.1,0.1c0.2,0.3,0.4,0.5,0.7,0.8C5.2,27,5.4,30.9,5.9,34.7L6,35.4l0,0.9c0.1,0.6,0.3,1.2,0.6,1.7
	c0.6,1,1.5,1.8,2.5,2.3c0.5,0.2,1,0.4,1.6,0.4c0.5,0,1,0,1.6,0c1-0.1,2-0.1,3-0.1c2.2,0,4.2-1.4,5-3.4c0.1-0.3,0.2-0.5,0.2-0.8
	s0.1-0.6,0.1-0.8l0.2-1.5l0.5-3c0.3-2,0.5-4,0.7-6c0-0.5,0-0.9,0.1-1.4c7.2,0.1,14.5,0.8,21.7,1.1c7.4,0.3,14.8,0.2,22.1-0.4
	c2.6-0.2,5.2-0.4,7.8-0.6c0,1.6,0.1,3.2,0.1,4.9c0.1,2,0.3,4,0.5,6l0.1,0.7v0.4l0.1,0.4c0.1,0.6,0.3,1.1,0.6,1.7
	c0.3,0.5,0.6,1,1,1.3c0.4,0.4,0.9,0.7,1.4,0.9s1,0.4,1.5,0.5c0.5,0,1,0,1.6,0c1,0,2-0.1,3-0.1c2.2,0,4.1-1.4,4.8-3.4
	c0.1-0.3,0.2-0.5,0.2-0.8s0.1-0.6,0.1-0.8l0.2-1.5l0.3-3c0.3-2.7,0.4-5.5,0.4-8.2c0.4-0.3,0.7-0.6,0.9-1C91,20.9,91,19.8,90.6,18.9z
	"/>
<path class="st0" d="M84.5,83.2L84.5,83.2c0.2-0.1,0.3-0.1,0.2-0.2S84.5,83,84.5,83.2c-0.6-0.3-1-0.2-1.1,0.2s-0.2,0.8-0.4,1.1h-1
	c-0.2,0.2-0.1,0.3,0.2,0.4s0.3,0.2,0.2,0.5c-0.7,0-1.4,0-2-0.1c-0.6,0-1.2,0.1-1.7,0.3c-0.2,0.1-0.1,0.1,0.1,0.1s0.2,0.1,0,0.2
	c-0.5-0.1-1.1-0.2-1.7-0.2c-0.2,0.2-0.2,0.2-0.1,0.2s0.2,0.1,0.2,0.4c-0.2-0.2-0.5-0.1-0.9,0.2c-0.3,0.2-0.6,0.6-0.7,1
	c-1-0.1-2.1-0.1-3.1,0c-0.9,0.1-1.8,0.3-2.7,0.7c0-0.4-0.1-0.6-0.2-0.7c-0.1,0.4-0.3,0.8-0.6,1c-0.5,0.1-0.9,0.1-1.4-0.1
	c-0.4-0.1-0.9-0.2-1.3-0.3c-0.4-0.1-0.8-0.1-1.1,0c-0.4,0.1-0.7,0.4-0.8,0.7c-0.2-0.2-0.5-0.4-0.8-0.4s-0.6,0-1,0.1
	c-0.3,0.1-0.6,0.1-1,0.1c-0.3,0-0.6-0.2-0.8-0.4c-0.6,0.6-1.4,1-2.2,1c-1,0.1-2,0-2.8-0.4c-0.2,0-0.4,0.2-0.4,0.5s-0.3,0.4-0.7,0.2
	c0-0.1,0-0.1-0.1-0.2c0,0-0.1-0.1-0.1-0.3c0.3,0,0.5-0.2,0.5-0.6c-0.2-0.1-0.4-0.1-0.4,0.1c-0.1,0.1-0.1,0.3-0.2,0.4
	c-0.8,0.3-1.6,0.4-2.5,0.3s-1.8-0.3-2.7-0.5s-1.7-0.3-2.6-0.3c-0.8,0-1.6,0.2-2.3,0.7c-1.2-0.8-2.6-1.1-4-0.8
	c-1.6,0.3-3.2,0.4-4.9,0.3c-0.2,1-0.2,2.1-0.2,3.1c0,1.1,0.1,2.3,0.1,3.4c0,1-0.1,2-0.4,3c-0.2,0.8-0.8,1.5-1.6,1.9
	c-0.2,0-0.5,0-0.7-0.2c-0.2-0.1-0.3-0.2-0.5-0.3c-0.5-0.4-0.8-0.9-0.9-1.5c-0.1-0.7-0.2-1.3-0.2-2c0-0.8,0-1.5,0.1-2.2
	s0.1-1.5,0-2.2c-0.1-0.4-0.2-0.9-0.4-1.3c-0.2-0.5-0.2-1,0-1.4c-1.1-0.1-2.3-0.1-3.7-0.1c-1.1,0-2.3,0.2-3.3,0.6
	c-0.4,0-0.6-0.1-0.8-0.3c-0.1-0.2-0.3-0.3-0.5-0.4c-0.6,0.5-1.4,0.7-2.1,0.8c-0.8,0.2-1.6-0.1-2-0.7c-0.4-0.1-0.6,0-0.7,0.2
	s-0.3,0.5-0.5,0.6C17,89.2,16.8,88.7,17,88c-0.2,0.1-0.3,0.2-0.5,0.3c-0.2,0.1-0.2,0-0.2-0.3c-0.4,0.3-0.9,0.5-1.4,0.7
	c-0.5,0.1-1,0.1-1.5,0s-0.9-0.3-1.3-0.7c-0.3-0.4-0.5-0.9-0.5-1.4c0.3-0.5,0.8-0.8,1.3-1c0.6-0.2,1.1-0.5,1.5-0.9
	c2.8-0.5,5.5-0.9,8.1-1.4s5.3-1,8-1.5c-0.2-4.1-0.5-8.2-0.9-12.1c-0.4-4-0.6-8.1-0.9-12.3c-1.2-0.1-2.4-0.5-3.4-1.1
	c-0.9-0.6-1.8-1.3-2.7-2c-0.6,0.8-1.6,1-2.5,0.6c-0.9-0.3-1.6-0.8-2.1-1.5c0-0.3,0.2-0.6,0.4-0.9c0.2-0.3,0.3-0.7,0.2-1
	c1.4-0.6,2.8-1.2,4.3-1.7c1.5-0.5,2.9-1.1,4.4-1.7c-0.2-1.4-0.3-2.7-0.5-3.8c-0.2-1.3-0.2-2.6-0.1-3.9c-0.5-0.1-0.9-0.2-1.4-0.2
	c-0.8-0.5-1.4-1.3-1.7-2.2c-0.4-1-0.5-2.2-0.5-3.3s0.3-2.2,0.6-3.3c0.3-0.9,0.9-1.7,1.6-2.3c0.1-0.8,0.5-1.5,1.1-2
	c0.6-0.6,1.2-1,1.9-1.4c0.6,0,1.2,0.1,1.8,0.2c0.6,0.2,1.1,0.3,1.8,0.5c0,0.7,0.1,1.4,0.4,2c3.4-0.3,6.9-0.5,10.7-0.6
	c3.6-0.1,7.2,0.1,10.8,0.4c3.3,0.3,6.6,0.9,9.8,1.9c2.8,0.8,5.3,2.1,7.6,3.8c0.6,0.7,1.1,1.5,1.4,2.4c0.3,1.1,0.5,2.3,0.3,3.5
	c-0.1,2.8-0.8,5.6-1.9,8.1c-0.9,2.2-2.3,4.1-4.1,5.6c2.7,0.7,5.6,1.3,8.9,1.9c3.1,0.5,6.2,1.3,9.2,2.4c2.7,0.9,5.2,2.3,7.3,4.2
	c2.1,1.9,3.3,4.5,3.4,7.3c0.1,1.3,0,2.6-0.4,3.9c-0.3,1.1-0.7,2.1-1.3,3.1c-0.3-0.1-0.7,0-0.9,0.1c-0.3,0.2-0.7,0.2-1.1,0.1
	c-0.2,1.8-1.3,3.4-2.8,4.4c-1.5,0.9-3,1.8-4.6,2.6L84.5,83.2L84.5,83.2z M17.9,87.6v-0.4h-0.4c0,0.1,0,0.3,0.1,0.4H17.9z M20.9,87.9
	c0-0.1,0-0.2,0.1-0.3c0,0,0-0.1-0.2-0.2C20.8,87.8,20.8,87.9,20.9,87.9L20.9,87.9z M21.3,88.2c-0.2,0-0.4,0.1-0.5,0.2
	C21.1,88.4,21.2,88.3,21.3,88.2L21.3,88.2z M39.9,40.2c-0.9,0.3-1.8,0.5-2.8,0.6s-2,0.1-3.1,0.1c0.1,0.9,0.2,1.7,0.2,2.5
	s0.1,1.6,0.1,2.5c4.3-1,8.6-1.9,13.1-2.7s8.9-1.7,13.3-2.7c-1.6-0.3-3.3-0.5-4.9-0.5c-1.7,0-3.4,0-5.2,0.1l-5.4,0.2
	C43.4,40.4,41.6,40.3,39.9,40.2L39.9,40.2z M35.4,80.8c7.4-1.7,15.1-3.1,22.9-4.4s15.4-2.9,22.7-4.8c1-0.3,2-0.6,3-0.8
	c1-0.2,1.9-0.7,2.6-1.5c-2.2-1.6-4.7-2.6-7.3-3.1c-3-0.6-6.1-1-9.3-1.2c-3.3-0.2-6.7-0.2-10.2-0.1c-3.3,0.1-6.5-0.1-9.7-0.8
	c-0.3-0.1-0.7-0.2-1-0.3s-0.5-0.2-0.8-0.3c-1.6-0.3-3.2-0.4-4.7-0.4c-1.3,0.1-2.6-0.2-3.6-0.9c-1,0-1.9-0.1-2.8-0.3
	c-0.7-0.2-1.5-0.5-2.2-0.9C35.2,67.5,35.3,74.1,35.4,80.8L35.4,80.8z M54.5,88.9C54.6,88.9,54.6,88.9,54.5,88.9L54.5,88.9
	C54.6,89,54.5,89.1,54.5,88.9C54.4,89,54.4,88.9,54.5,88.9L54.5,88.9z M62.6,88.1c0.3,0,0.5-0.1,0.5-0.2
	C62.8,87.9,62.6,88,62.6,88.1L62.6,88.1z M65.8,86.6c0.3,0,0.5-0.1,0.5-0.2C66,86.4,65.8,86.4,65.8,86.6L65.8,86.6z M67.4,86.1
	c-0.1,0.1-0.3,0.1-0.5,0s-0.2,0-0.2,0.1c0.1,0.1,0.3,0.1,0.4,0.1C67.2,86.4,67.3,86.3,67.4,86.1L67.4,86.1z M67.5,51.9h0.2v-0.5
	h-0.2V51.9z M67.5,86.1c0.4,0,0.6-0.1,0.5-0.2h-0.5V86.1z M69.3,86.6c0.1-0.1,0.1-0.2,0.1-0.3c0-0.1-0.1-0.2-0.2-0.2
	C69.1,86.4,69.2,86.6,69.3,86.6L69.3,86.6z M75.8,87.4C75.9,87.4,75.9,87.4,75.8,87.4L75.8,87.4C75.9,87.6,75.8,87.6,75.8,87.4
	L75.8,87.4z M83.1,84.4C83.2,84.4,83.2,84.4,83.1,84.4L83.1,84.4C83.2,84.7,83.2,84.6,83.1,84.4L83.1,84.4z M84.6,83.6
	c-0.5,0.2-0.6,0-0.5-0.5h0.5V83.6z M88.1,80.8c-0.2-0.1-0.4,0-0.4,0.2s0.1,0.3,0.4,0.2V80.8z"/>
</svg>
