<svg id="Layer_1" data-name="Layer 1" xmlns="http://www.w3.org/2000/svg" viewBox="0 0 100 100"><title>TNB-only-B-svg</title><path d="M90.55,18.94a2.93,2.93,0,0,0-1.17-1.16c-.24-3.49-.67-7-.75-10.48l0-.74c0-.25,0-.49,0-.78a5.57,5.57,0,0,0-.37-1.6A5.37,5.37,0,0,0,86.09,1.7a5.29,5.29,0,0,0-1.54-.64,5.67,5.67,0,0,0-.84-.13c-.29,0-.51,0-.76-.05-1-.05-2-.14-3-.2a5.64,5.64,0,0,0-5.66,3.93,6.3,6.3,0,0,0-.22.94L74,6c0,.17,0,.26,0,.4L74,7.9l-.1,3c-.06,1.82-.11,3.64-.15,5.46-3.55-.28-7.1-.52-10.65-.64s-7.38-.18-11.07-.22c-7.38-.07-14.76.11-22.14.27q-3.84.09-7.67.2c0-2.88-.16-5.76-.27-8.65l0-.74,0-.37,0-.51a6.46,6.46,0,0,0-.55-2.06,6.21,6.21,0,0,0-2.84-3A6.4,6.4,0,0,0,16.48,0a6.14,6.14,0,0,0-1,0A4.05,4.05,0,0,0,15,0l-.37,0-3,.3A5.76,5.76,0,0,0,8.37,1.78,5.66,5.66,0,0,0,6.47,5.6c0,.29,0,.58,0,.81,0,.5,0,1,0,1.49q0,1.49,0,3c-.07,2.1-.3,4.19-.54,6.29a3.66,3.66,0,0,0-1.25,5.11,3.47,3.47,0,0,0,.65.76,54.17,54.17,0,0,0,.45,11.64l.11.74.13.82A5.69,5.69,0,0,0,6.62,38a5.59,5.59,0,0,0,2.54,2.3,5.71,5.71,0,0,0,1.58.44,8.82,8.82,0,0,0,1.56,0c1-.06,2-.08,3-.08a5.33,5.33,0,0,0,5-3.43,6.53,6.53,0,0,0,.25-.82c.05-.28.1-.58.13-.81l.22-1.49.45-3c.29-2,.55-4,.67-5.95,0-.45,0-.9.06-1.35,7.24.15,14.48.83,21.72,1.11a186.59,186.59,0,0,0,22.14-.43c2.6-.19,5.21-.42,7.81-.61,0,1.62.07,3.23.14,4.85.09,2,.29,4,.5,5.95l.08.74,0,.37.06.43a5.51,5.51,0,0,0,.56,1.67,5.37,5.37,0,0,0,1,1.35,4.94,4.94,0,0,0,1.36.94,5.64,5.64,0,0,0,1.54.46,8.42,8.42,0,0,0,1.55,0c1,0,2-.07,3-.08a5.17,5.17,0,0,0,4.8-3.42,5.4,5.4,0,0,0,.22-.79c0-.27.07-.56.09-.79l.16-1.49.33-3a70.92,70.92,0,0,0,.43-8.25,2.83,2.83,0,0,0,.94-1A2.93,2.93,0,0,0,90.55,18.94Z"/><path d="M84.51,83.18v-.12q.36,0,.18-.12c-.12-.08-.18,0-.18.12q-.95-.24-1.07.3a7.46,7.46,0,0,1-.36,1.13H82q-.24.24.18.36t.18.47c-.71,0-1.36,0-2-.06a3.68,3.68,0,0,0-1.72.3c-.16.08-.12.12.12.12s.24.08,0,.24a10.06,10.06,0,0,0-1.66-.24c-.16.16-.18.24-.06.24s.18.12.18.36q-.36-.24-.89.18a1.67,1.67,0,0,0-.65,1,21,21,0,0,0-3.14,0,7.19,7.19,0,0,0-2.67.71q0-.59-.24-.71A2.83,2.83,0,0,1,69,88.51a3.14,3.14,0,0,1-1.36-.06q-.65-.18-1.3-.3a2.71,2.71,0,0,0-1.13,0,1.41,1.41,0,0,0-.83.71,1.4,1.4,0,0,0-.83-.41,2.6,2.6,0,0,0-.95.06,2.52,2.52,0,0,1-.95.06,1.39,1.39,0,0,1-.83-.41,3,3,0,0,1-2.25,1,5,5,0,0,1-2.84-.41c-.24,0-.38.18-.41.53s-.26.41-.65.18a.25.25,0,0,0-.06-.18s-.06-.14-.06-.3c.31,0,.47-.2.47-.59-.24-.08-.38-.06-.41.06a3.63,3.63,0,0,1-.18.41,4.83,4.83,0,0,1-2.49.3q-1.3-.18-2.67-.47a12.36,12.36,0,0,0-2.61-.3,4.08,4.08,0,0,0-2.31.71,5.15,5.15,0,0,0-4-.77,21.88,21.88,0,0,1-4.86.3,15.67,15.67,0,0,0-.18,3.14q.06,1.72.06,3.38a12,12,0,0,1-.36,3A2.54,2.54,0,0,1,33.45,100a.92.92,0,0,1-.65-.18,1.33,1.33,0,0,0-.53-.3A2.56,2.56,0,0,1,31.38,98a10.94,10.94,0,0,1-.18-2,22.39,22.39,0,0,1,.12-2.25,10.89,10.89,0,0,0,0-2.25,6.38,6.38,0,0,0-.36-1.3,2.16,2.16,0,0,1,0-1.42q-1.66-.12-3.67-.12a8.06,8.06,0,0,0-3.32.59c-.39,0-.65-.1-.77-.3a1,1,0,0,0-.53-.41,4.44,4.44,0,0,1-2.13.83,1.8,1.8,0,0,1-2-.71c-.39-.08-.63,0-.71.24a1.13,1.13,0,0,1-.47.59Q16.75,89.1,17,88a3.27,3.27,0,0,0-.47.3q-.24.18-.24-.3a3.34,3.34,0,0,1-1.36.65,3.38,3.38,0,0,1-1.54,0A2.31,2.31,0,0,1,12.13,88a2,2,0,0,1-.47-1.36A2.29,2.29,0,0,1,13,85.66a2.83,2.83,0,0,0,1.48-.95q4.15-.71,8.12-1.42t8-1.54q-.36-6.16-.89-12.14t-.89-12.26a7.75,7.75,0,0,1-3.38-1.13,31.07,31.07,0,0,1-2.67-2,2,2,0,0,1-2.49.59,4.16,4.16,0,0,1-2.13-1.54,1.72,1.72,0,0,1,.41-.89,1.12,1.12,0,0,0,.18-1A45.21,45.21,0,0,1,23,49.71q2.19-.77,4.44-1.72-.24-2.13-.53-3.79a14,14,0,0,1-.06-3.91,6.53,6.53,0,0,0-1.42-.24,4,4,0,0,1-1.72-2.25,8.93,8.93,0,0,1-.47-3.26,10,10,0,0,1,.65-3.26A4.58,4.58,0,0,1,25.51,29a3.85,3.85,0,0,1,1.07-2,8.53,8.53,0,0,1,1.9-1.42,6.47,6.47,0,0,1,1.78.24q.83.24,1.78.47a5.1,5.1,0,0,0,.36,2q5.09-.47,10.66-.59a89.11,89.11,0,0,1,10.84.41A51.79,51.79,0,0,1,63.66,30a22.15,22.15,0,0,1,7.58,3.85,7.32,7.32,0,0,1,1.42,2.37A8.88,8.88,0,0,1,73,39.7a22.09,22.09,0,0,1-1.9,8.12A15.27,15.27,0,0,1,67,53.44q4,1.07,8.94,1.9a54.78,54.78,0,0,1,9.24,2.37,22.25,22.25,0,0,1,7.35,4.21,10.34,10.34,0,0,1,3.38,7.29,12.06,12.06,0,0,1-.36,3.91,13.43,13.43,0,0,1-1.3,3.08,1.24,1.24,0,0,0-.95.12,1.48,1.48,0,0,1-1.07.12,6.27,6.27,0,0,1-2.84,4.44q-2.25,1.36-4.62,2.55v-.24ZM17.93,87.56V87.2h-.36a.48.48,0,0,0,.12.36Zm3,.36a.48.48,0,0,1,.06-.3s0-.1-.18-.18C20.77,87.76,20.81,87.92,20.89,87.92Zm.36.24a.69.69,0,0,0-.47.24C21.09,88.39,21.25,88.31,21.25,88.15Zm18.6-48a10.52,10.52,0,0,1-2.78.59q-1.48.12-3.14.12.12,1.3.24,2.49t.12,2.49q6.4-1.54,13.09-2.72T60.7,40.41a25.14,25.14,0,0,0-4.92-.47q-2.55,0-5.21.12l-5.39.24A39.43,39.43,0,0,1,39.85,40.17Zm-4.5,40.64q11.13-2.49,22.92-4.44T81,71.57a23.6,23.6,0,0,1,3-.77,4.59,4.59,0,0,0,2.61-1.48,18.79,18.79,0,0,0-7.29-3.14A57.93,57.93,0,0,0,70.06,65q-5-.24-10.19-.06a40.35,40.35,0,0,1-9.72-.77,5,5,0,0,1-1-.3c-.28-.12-.53-.22-.77-.3a19.91,19.91,0,0,0-4.74-.36A5.46,5.46,0,0,1,40,62.32,9.36,9.36,0,0,1,37.18,62,20.57,20.57,0,0,1,35,61.14Q35.35,70.74,35.35,80.81Zm19.07,8.06a.11.11,0,0,1,.12.12A.1.1,0,0,1,54.42,88.86Zm8.17-.71c.31,0,.47-.08.47-.24C62.75,87.92,62.6,88,62.6,88.15Zm3.2-1.54c.31,0,.47-.08.47-.24C66,86.38,65.79,86.45,65.79,86.61Zm1.54-.47a.5.5,0,0,1-.47,0c-.16-.08-.24,0-.24.12a.57.57,0,0,0,.41.12C67.24,86.38,67.33,86.3,67.33,86.14Zm.12-34.24h.24v-.47h-.24Zm0,34.24c.39,0,.55-.08.47-.24h-.47Zm1.78.47a.4.4,0,0,0,.12-.3c0-.12-.08-.18-.24-.18C69.11,86.45,69.15,86.61,69.23,86.61Zm6.52.83a.11.11,0,0,1,.12.12C75.86,87.64,75.82,87.6,75.75,87.44Zm7.35-3a.11.11,0,0,1,.12.12C83.21,84.68,83.17,84.64,83.09,84.48Zm1.42-.83c-.47.16-.63,0-.47-.47h.47Zm3.55-2.84c-.24-.08-.36,0-.36.24s.12.32.36.24Z"/></svg>